<?xml version="1.0" encoding="iso-8859-1"?>
<!-- Generator: Adobe Illustrator 19.0.0, SVG Export Plug-In . SVG Version: 6.00 Build 0)  -->
<svg version="1.1" id="Capa_1" xmlns="http://www.w3.org/2000/svg" xmlns:xlink="http://www.w3.org/1999/xlink" x="0px" y="0px"
	 viewBox="0 0 512 512" style="enable-background:new 0 0 512 512;" xml:space="preserve">
<polyline style="fill:#41B787;" points="284.497,57.661 345.728,21.669 325,81.541 442.308,131.667 504.391,108.41 451.211,190.119 
	267.161,320.193 208.315,135.54 "/>
<path style="fill:#4BC999;" d="M503.608,174.571L399.442,278.737l-71.811,71.811c-30.133,30.133-75.596,38.828-114.718,21.955
	l-13.413-5.783l-93.31,93.3L37.919,391.75l93.3-93.31l-5.783-13.413c-12.692-29.433-10.907-62.447,3.571-89.83
	c1.045-1.968,2.151-3.906,3.328-5.813c0.345-0.558,0.69-1.116,1.055-1.674c1.918-3.003,4.008-5.925,6.26-8.735
	c0.781-0.974,1.583-1.938,2.394-2.892c1.694-1.978,3.48-3.906,5.347-5.773h0.01L294.109,23.602L268.42,114.66l-0.061,0.223
	l125.188-73.688l-39.751,77.199l118.441-36.058l-75.129,123.839L503.608,174.571z"/>
<path style="fill:#41B787;" d="M294.108,23.603l-25.689,91.058l-88.329,88.339c-30.133,30.133-45.504,68.93-38.787,97.896
	l2.313,9.933l-93.31,93.31L37.918,391.75l93.31-93.31l-5.793-13.413c-12.692-29.433-10.907-62.447,3.571-89.83
	c1.045-1.968,2.151-3.906,3.328-5.813c0.345-0.558,0.69-1.116,1.055-1.674c1.918-3.003,4.008-5.925,6.26-8.735
	c0.781-0.974,1.583-1.938,2.394-2.892c1.704-1.978,3.49-3.906,5.357-5.773L294.108,23.603z"/>
<path style="fill:#4BC999;" d="M83.283,489.263L8.677,414.656c-1.43-1.43-1.43-3.748,0-5.177l20.894-20.894
	c1.43-1.43,3.748-1.43,5.177,0l74.607,74.607c1.43,1.43,1.43,3.748,0,5.177l-20.894,20.894
	C87.031,490.692,84.713,490.692,83.283,489.263z"/>
<path style="fill:#41B787;" d="M34.834,440.813L8.677,414.656c-1.43-1.43-1.43-3.748,0-5.177l20.894-20.894
	c1.43-1.43,3.748-1.43,5.177,0l26.157,26.157c1.43,1.43,1.43,3.748,0,5.177l-20.894,20.894
	C38.581,442.243,36.263,442.243,34.834,440.813z"/>
<circle style="fill:#5BD3A2;" cx="254.983" cy="331.349" r="26.379"/>
<path d="M501.445,167.278l-32.58,9.667l41.904-64.384c1.793-2.755,1.614-6.349-0.442-8.913c-2.057-2.564-5.526-3.518-8.605-2.364
	l-41.514,15.551l18.536-30.55c1.637-2.698,1.439-6.124-0.496-8.616c-1.935-2.491-5.205-3.529-8.225-2.612L368.805,105.87
	l31.506-61.193c1.551-3.012,0.923-6.687-1.539-9.013c-2.462-2.326-6.167-2.745-9.086-1.027l-50.731,29.861l13.966-40.339
	c1.043-3.012,0.097-6.355-2.368-8.375c-2.465-2.02-5.929-2.288-8.679-0.674l-44.913,26.4l4.471-15.853
	c0.94-3.333-0.488-6.88-3.476-8.631c-2.987-1.75-6.78-1.264-9.229,1.184l-74.798,74.798c-2.972,2.972-2.972,7.79,0,10.761
	c2.972,2.972,7.79,2.972,10.761,0l54.177-54.177l-17.833,63.225c-0.844,2.991,0.216,6.194,2.677,8.092
	c2.46,1.897,5.828,2.107,8.506,0.532l102.523-60.348l-27.708,53.818c-1.4,2.719-1.036,6.01,0.923,8.358
	c1.958,2.348,5.133,3.295,8.058,2.405l99.388-30.255l-64.805,106.809c-1.631,2.689-1.441,6.104,0.48,8.593
	c1.921,2.49,5.175,3.545,8.19,2.648l77.756-23.07l-99.346,99.346c-0.007,0.006-0.013,0.013-0.02,0.02l-55.406,55.406
	c-13.702,13.702-31.005,22.87-50.037,26.511c-19.033,3.64-38.496,1.51-56.29-6.167l-13.411-5.785
	c-2.863-1.236-6.19-0.599-8.395,1.606l-87.929,87.929l-57.516-57.516l87.93-87.929c2.205-2.205,2.842-5.531,1.606-8.395
	l-5.785-13.411c-7.676-17.793-9.809-37.257-6.168-56.29s12.809-36.335,26.511-50.037l48.332-48.332c2.972-2.972,2.972-7.79,0-10.761
	c-2.972-2.972-7.79-2.972-10.761,0l-48.332,48.332c-15.866,15.866-26.481,35.901-30.697,57.938
	c-4.217,22.038-1.748,44.576,7.141,65.177l3.74,8.667l-84.597,84.597c-4.281-2.355-9.778-1.729-13.404,1.896L3.296,404.098
	c-4.394,4.394-4.394,11.544,0,15.938l40.296,40.296c2.972,2.972,7.79,2.972,10.761,0c2.972-2.972,2.972-7.79,0-10.761
	l-37.504-37.504l15.311-15.311l0.373,0.373l68.277,68.277l0.373,0.373l-15.311,15.311l-11.735-11.734
	c-2.972-2.973-7.79-2.972-10.761,0c-2.972,2.972-2.972,7.79,0,10.761l14.527,14.526c2.198,2.198,5.083,3.296,7.969,3.296
	c2.885,0,5.772-1.099,7.968-3.296l20.894-20.894c3.625-3.625,4.251-9.122,1.895-13.404l84.597-84.596l8.669,3.74
	c20.602,8.888,43.14,11.357,65.177,7.141c22.038-4.217,42.072-14.832,57.938-30.698l175.978-175.978
	c2.462-2.462,2.939-6.28,1.159-9.272C508.367,167.689,504.783,166.286,501.445,167.278z M290.99,62.671l40.792-23.978
	l-13.056,37.711l-37.902,22.31L290.99,62.671z M447.446,137.868l37.944-14.214l-39.031,59.968l-32.531,9.652L447.446,137.868z"/>
<g>
</g>
<g>
</g>
<g>
</g>
<g>
</g>
<g>
</g>
<g>
</g>
<g>
</g>
<g>
</g>
<g>
</g>
<g>
</g>
<g>
</g>
<g>
</g>
<g>
</g>
<g>
</g>
<g>
</g>
</svg>
